<?xml version="1.0" encoding="iso-8859-1"?>
<!-- Generator: Adobe Illustrator 18.0.0, SVG Export Plug-In . SVG Version: 6.00 Build 0)  -->
<!DOCTYPE svg PUBLIC "-//W3C//DTD SVG 1.1//EN" "http://www.w3.org/Graphics/SVG/1.1/DTD/svg11.dtd">
<svg version="1.1" id="Capa_1" xmlns="http://www.w3.org/2000/svg" xmlns:xlink="http://www.w3.org/1999/xlink" x="0px" y="0px"
	 viewBox="0 0 336.518 336.518" style="enable-background:new 0 0 336.518 336.518;" xml:space="preserve">
<g>
	<g>
		<g>
			<g>
				<path d="M132.614,211.703c-1.877,0-3.756-0.7-5.213-2.107c-2.977-2.879-3.059-7.627-0.18-10.605l31.178-32.257l-40.025-52.225
					c-2.52-3.288-1.896-7.996,1.391-10.516c3.287-2.521,7.996-1.897,10.516,1.391l43.955,57.354c2.26,2.948,2.021,7.104-0.561,9.774
					l-35.668,36.902C136.536,210.937,134.575,211.703,132.614,211.703z"/>
			</g>
			<path d="M168.259,55.627c-62.313,0-113.006,50.694-113.006,113.006c0,62.313,50.693,113.008,113.006,113.008
				s113.008-50.695,113.008-113.008C281.267,106.321,230.571,55.627,168.259,55.627z M175.759,266.355v-6.363
				c0-4.143-3.357-7.5-7.5-7.5c-4.143,0-7.5,3.357-7.5,7.5v6.364c-48.521-3.689-87.273-42.868-90.307-91.567h6.449
				c4.141,0,7.5-3.357,7.5-7.5c0-4.143-3.359-7.5-7.5-7.5h-6.246c4.264-47.445,42.479-85.258,90.104-88.878v6.364
				c0,4.142,3.357,7.5,7.5,7.5c4.143,0,7.5-3.358,7.5-7.5v-6.363c47.625,3.621,85.84,41.432,90.104,88.877h-6.244
				c-4.143,0-7.5,3.357-7.5,7.5c0,4.143,3.357,7.5,7.5,7.5h6.449C263.034,223.488,224.28,262.666,175.759,266.355z"/>
		</g>
		<path d="M318.347,22.507c-11.033-10.558-25.514-16.372-40.779-16.372c-16.25,0-31.387,6.464-42.621,18.201
			c-2.863,2.992-2.76,7.74,0.234,10.604l31.775,30.413l-3.273,3.423c-24.824-23.732-58.451-38.328-95.424-38.328
			S97.661,45.043,72.837,68.774l-3.275-3.423l31.775-30.412c2.992-2.863,3.098-7.611,0.232-10.604
			C90.337,12.598,75.2,6.135,58.95,6.135c-15.266,0-29.746,5.814-40.779,16.372c-23.494,22.488-24.314,59.9-1.828,83.397
			c1.377,1.438,3.266,2.269,5.254,2.313c0.057,0.001,0.111,0.002,0.166,0.002c1.93,0,3.787-0.744,5.186-2.082l31.775-30.413
			l3.834,4.007c-20.258,24.047-32.486,55.071-32.486,88.902c0,50.199,26.908,94.227,67.055,118.432l-17.328,32.271
			c-1.961,3.649-0.59,8.196,3.059,10.155c1.129,0.606,2.344,0.894,3.543,0.894c2.672,0,5.26-1.433,6.613-3.953l17.361-32.333
			c17.617,8.16,37.227,12.725,57.885,12.725s40.268-4.564,57.885-12.726l17.361,32.334c1.354,2.521,3.941,3.953,6.615,3.953
			c1.197,0,2.412-0.287,3.541-0.894c3.648-1.959,5.02-6.506,3.059-10.155l-17.328-32.271
			c40.146-24.205,67.055-68.232,67.055-118.432c0-33.831-12.228-64.855-32.486-88.902l3.834-4.006l31.775,30.412
			c1.397,1.338,3.256,2.082,5.186,2.082c0.055,0,0.109-0.001,0.164-0.002c1.99-0.043,3.879-0.875,5.254-2.313
			C342.661,82.407,341.843,44.995,318.347,22.507z M22.456,89.672c-11.729-17.418-9.586-41.327,6.088-56.329
			c8.226-7.872,19.023-12.208,30.406-12.208c9.574,0,18.631,3.009,26.143,8.589L22.456,89.672z M291.446,168.633
			c0,67.927-55.262,123.189-123.187,123.189S45.071,236.559,45.071,168.633c0-67.925,55.262-123.186,123.188-123.186
			S291.446,100.708,291.446,168.633z M314.06,89.673l-62.635-59.949c7.512-5.58,16.568-8.589,26.143-8.589
			c11.383,0,22.182,4.336,30.406,12.208C323.649,48.345,325.79,72.254,314.06,89.673z"/>
	</g>
</g>
<g>
</g>
<g>
</g>
<g>
</g>
<g>
</g>
<g>
</g>
<g>
</g>
<g>
</g>
<g>
</g>
<g>
</g>
<g>
</g>
<g>
</g>
<g>
</g>
<g>
</g>
<g>
</g>
<g>
</g>
<style>
path {
	fill: #66e76c;
}
</style>
</svg>
