<svg xmlns="http://www.w3.org/2000/svg" width="1100" height="767.464" xmlns:v="https://vecta.io/nano"><path d="M310.872 516.052c0-.777-.241-1.264-.535-1.082s-.903-.549-1.352-1.624c-.474-1.134-1.205-1.955-1.741-1.955-.73 0-.789-.162-.281-.774.494-.595.477-.83-.07-1.014-.561-.189-.536-.455.115-1.248.631-.768.664-1.063.138-1.24-.38-.128-.69-.475-.69-.771s.246-.387.546-.201c.313.193.406-.028.217-.52-.181-.471-.045-.857.302-.857.459 0 .47-.3.04-1.104-.475-.887-.42-1.104.278-1.104s.737-.142.178-.74c-.715-.765-2.103-.081-1.922.947.047.266-.206.59-.561.722-.425.157-.537-.18-.327-.983.176-.672.094-1.09-.181-.929s-.998.111-1.605-.113c-.876-.322-.618-.489 1.242-.808 1.463-.25 2.346-.695 2.346-1.181 0-.429.483-.78 1.073-.78s1.413-.485 1.828-1.078c.745-1.063 3.557-2.514 4.468-2.305.258.059 1.872-.247 3.589-.68a60.02 60.02 0 0 1 6.572-1.177c1.898-.214 3.59-.613 3.759-.887s.852-.503 1.517-.51 2.7-.747 4.522-1.644 3.733-1.637 4.246-1.644 1.087-.261 1.275-.564.061-.552-.282-.552c-.765 0-.489-2.469.282-2.523.304-.021 1.641-.35 2.973-.731s3.027-.541 3.768-.355 2.136.095 3.1-.203 3.139-.812 4.834-1.144c4.65-.91 7.133-1.67 7.133-2.184 0-.532-28.321-.161-35.333.463-3.694.329-5.104.239-6.625-.422-1.063-.462-2.057-.876-2.208-.92s-1.002-.38-1.889-.746-2.005-.514-2.484-.327-7.827.428-16.329.537-16.576.446-17.943.748-5.461.838-9.1 1.191-7.091.895-7.672 1.206-2.27.449-3.753.306-2.83-.042-2.994.223-.529.339-.812.164-.514-.055-.514.267-.186.535-.414.475c-.918-.243-5.659.761-5.659 1.199 0 .539-4.17 1.435-5.747 1.234-.58-.074-1.521.367-2.092.979s-1.462 1.143-1.982 1.179-2.435.119-4.257.184-4.306.406-5.521.756-3.147.777-4.294.948-1.951.528-1.786.795c.514.831-.713 1.049-10.305 1.829-.51.041-.882.311-.828.598s-.398.669-1.006.848-1.731.752-2.498 1.273c-1.003.682-3.094 1.048-7.453 1.303-3.333.195-6.633.329-7.335.297s-2.039.337-2.972.819c-.963.498-1.843.658-2.036.37-.475-.706-2.419-1.384-1.993-.696.449.726-.089.689-1.558-.108-2.967-1.608-17.012-.386-18.478 1.608-.454.617-.503 1.034-.138 1.155.314.105.571.41.571.679s-.348.355-.772.192-.936-.031-1.137.293c-.535.866 2.773.741 4.559-.173.82-.42 2.609-.946 3.975-1.169l3.451-.586c.531-.099.966.146.966.544 0 .512.687.669 2.346.539 1.814-.142 2.124-.055 1.369.383-.538.312-.853.768-.702 1.014.328.53-2.759 1.063-8.735 1.509-3.355.25-4.45.151-4.822-.436-.349-.551-.483-.57-.49-.07-.012 1.016-3.331.852-4.52-.224-.555-.503-1.01-.679-1.01-.391 0 .317-1.792.373-4.555.143l-8.695-.684c-2.277-.167-4.957-.593-5.954-.946s-2.432-.524-3.188-.379-1.531.009-1.722-.301c-.214-.346-.07-.391.375-.117.45.278.589.23.368-.127-.416-.673-3.049-1.282-6.165-1.427-1.838-.085-2.218-.301-2.268-1.289-.054-1.06.327-1.231 3.589-1.609 2.007-.233 4.27-.369 5.029-.303l1.38.119-1.465-.796c-2.54-1.381-5.017-1.963-9.853-2.318-2.581-.189-6.308-.749-8.281-1.245-4.539-1.141-20.291-1.228-20.978-.116-.236.383-.722.515-1.079.294-.922-.57-11.082-.762-10.736-.203.323.523.241.532-6.981.751-5.097.155-7.249.343-14.881 1.305-3.48.438-5.515.187-7.504-.926-.833-.466-.653-.731 1.353-1.998 1.618-1.021 3.595-1.622 6.579-1.999 5.092-.644 9.95-1.455 13.451-2.245 2.094-.473 2.511-.765 2.292-1.604-.157-.602-.588-.903-1.042-.729-.426.163-.774.022-.774-.314s.435-.615.966-.62c.826-.007.846-.086.138-.544-.524-.338-.581-.538-.155-.544.371-.005.53-.381.354-.84-.222-.578.329-1.119 1.812-1.778l2.131-.947-5.394-.333c-2.967-.183-6.88-.308-8.695-.277s-3.301.025-3.301-.013.497-.642 1.104-1.342 1.104-1.105 1.104-.9.559.007 1.243-.441 3.085-1.1 5.336-1.45 5.077-.982 6.279-1.406 3.087-.78 4.187-.791c3.075-.03 10.819-2.044 8.58-2.231-.278-.023-1.003-.157-1.61-.296l-1.778-.402c-1.263-.277-1.344-.814-.178-1.184.64-.203 1.813-.971 2.607-1.707s1.997-1.337 2.675-1.337 1.515-.342 1.862-.759c.518-.624.062-.824-2.555-1.122-1.752-.2-3.93-.483-4.841-.63-2.167-.35-10.791-.299-11.383.067-.799.494-7.112.727-7.112.262 0-.244.373-.753.828-1.131s.828-.947.828-1.264-.163-.413-.363-.213-.697.087-1.104-.252-.741-.379-.741-.087-.373.528-.828.528c-1.326 0-.962-.591.86-1.398 2.049-.907 1.756-1.287-1.548-2.007-3.013-.656-3.588-1.685-1.427-2.556 2.236-.901 12.741-2.071 18.746-2.087 2.815-.008 5.777-.179 6.582-.382l1.465-.368-1.573-1.287c-.865-.708-1.993-1.296-2.507-1.307-1.309-.028-1.706-.906-1.004-2.218.741-1.385 5.544-3.875 7.473-3.875.814 0 1.284-.238 1.09-.552-.188-.304-.797-.552-1.354-.552-.935 0-1.975-1.378-1.77-2.346.208-.984-8.551.116-9.284 1.166-.56.802-14.658 2.898-16.044 2.385l-1.32-.488 1.284-.687c.706-.378 5.293-1.355 10.193-2.172 8.967-1.495 11.149-2.55 5.273-2.55-1.805 0-3.466-.315-4.006-.761-.767-.632-1.829-.65-6.302-.104-8.225 1.004-13.004 1.694-14.125 2.039-.743.228-.966.065-.828-.607.201-.978 1.909-2.126 4.587-3.083 2.305-.823.872-1.549-2.075-1.051l-4.807.781-2.484.389 2.07-1.984c1.139-1.091 2.07-2.073 2.07-2.181s-1.541-.372-3.423-.585c-4.452-.504-6.834-1.752-6.803-3.564.016-.956 3.588-2.238 6.911-2.482 1.368-.1 4.475-.577 6.904-1.059s6.156-.989 8.282-1.126 5.356-.51 7.177-.83c11.312-1.986 13.859-2.475 14.346-2.755.3-.172-.57-.584-1.932-.916-1.371-.334-2.477-.927-2.477-1.328 0-.929 5.564-2.947 10.615-3.85 2.457-.439 4.274-1.092 4.869-1.75.533-.589 2.381-1.331 4.209-1.691 4.149-.816 4.037-1.59-.471-3.256-.966-.357-1.645-.937-1.508-1.288.311-.799 2.87-2.019 4.236-2.019.565 0 .873-.248.685-.552s-2.19-.552-4.449-.552c-3.723 0-5.218-.564-3.418-1.291 1.608-.649-6.449-.298-10.429.455-4.956.937-7.652.545-7.652-1.113 0-.764 1.442-1.767 5.419-3.77 3.746-1.887 5.195-2.874 4.693-3.198-.954-.616-.012-1.246 3.69-2.469 5.226-1.726 9.373-4.62 8.828-6.161-.372-1.053 1.665-1.627 10.081-2.842 4.183-.604 8.373-1.48 9.31-1.948s2.921-.996 4.409-1.174c4.102-.492 11.952-2.477 13.179-3.334.599-.418 1.841-.777 2.76-.799s2.168-.252 2.776-.513c.879-.378.654-.491-1.104-.556-4.706-.173-7.203-.637-7.827-1.454-.426-.558-1.091-.729-1.932-.498-1.104.303-1.147.267-.307-.259.537-.336 1.406-.541 1.932-.454s1.29-.052 1.699-.308c.439-.275 1.299-.168 2.104.263 1.061.568 1.592.585 2.406.077.661-.413 1.167-.454 1.379-.112.184.297 1.748.55 3.476.56s3.763.375 4.522.809c1.654.945 2.208 1.015 2.208.276 0-.304-.387-.552-.861-.552s-.725-.22-.558-.489-.218-.625-.854-.792-1.048-.629-.916-1.029c.243-.737 2.716-1.17 10.366-1.811 6.911-.58 8.833-.892 8.833-1.434 0-.285-.373-.518-.828-.518s-.828-.491-.828-1.104c0-.81.368-1.104 1.38-1.104 1.588 0 1.859-.85.393-1.234-.543-.142-3.338-.125-6.211.037-8.368.472-11.715.315-13.465-.632-.889-.481-1.776-.776-1.97-.656s-.251-.481-.126-1.336c.274-1.865-.503-2.156-6.171-2.312-3.393-.093-3.656-.177-2.477-.788 1.94-1.005 9.055-2.448 13.298-2.696 2.168-.127 4.217-.58 4.954-1.096 1.568-1.099 2.513-1.112 3.574-.052.477.477 1.806.823 3.135.816 4.092-.021 19.359-1.574 21.432-2.18 1.936-.566 1.994-.657 1.586-2.468-.257-1.141-.199-2.105.147-2.452.394-.394.377-.806-.055-1.326-1.319-1.589.359-1.918 8.416-1.65 6.26.208 8.213.094 9.483-.554 1.344-.685 7.403-1.631 11.537-1.8.607-.025 2.346-.267 3.865-.539l2.76-.494-2.484-.402c-1.366-.221-5.466-.275-9.109-.12s-8.861.248-11.594.208-8.074.331-11.87.826c-7.51.979-15.255 1.663-18.589 1.643-1.163-.007-2.27.204-2.461.469s-1.122.514-2.07.553-1.724.276-1.724.528-.559.3-1.242.108c-.972-.274-1.062-.223-.414.23.714.5.695.581-.138.588-.531.005-.966.285-.966.624 0 .378-.525.272-1.361-.276-1.511-.99-2.174-1.146-1.714-.402.166.269-.192.619-.796.776-.628.164-1.098.014-1.098-.351s-.872-.638-2.07-.638c-1.316 0-2.023.242-1.941.664.089.457-.506.582-1.908.403-2.298-.294-4.566-1.581-4.578-2.598-.006-.435-.2-.381-.544.151-.415.643-.537.48-.544-.726-.011-1.991.899-3.69 1.976-3.69.463 0 .688-.248.5-.552s.108-.571.658-.594c1.819-.077 2.975-.411 4.205-1.218 1.103-.723 3.695-.445 3.695.397 0 .152-.333.149-.74-.008s-1.09.148-1.518.675c-.671.827-.67.894.006.487.603-.363.694-.239.395.54-.232.606-.104 1.193.32 1.462 1.056.67 1.946.544.985-.14-.623-.443-.303-.516 1.292-.294 1.173.163 2.571.014 3.13-.335.764-.477 1.206-.467 1.818.041.652.541.891.481 1.237-.309.235-.539.389-1.167.341-1.394s.264-.414.694-.414.877-.284.993-.631.939-.709 1.83-.804 1.897-.552 2.236-1.016.818-.661 1.064-.438.291-.029.101-.561c-.427-1.189.629-1.301 1.084-.114.289.754.446.744 1.363-.086.979-.886 1.036-.879 1.044.114.007.881.095.917.544.224.798-1.235.684-1.503-.794-1.874-.937-.235-1.319-.691-1.258-1.5.097-1.289 2.02-2.253 4.236-2.123 2.065.121 3.889-.589 3.889-1.515 0-.596.549-.771 2.07-.66 2.225.162 5.968-.459 7.315-1.214.669-.375.616-.473-.276-.507-.607-.023-2.346-.159-3.865-.302-4.695-.44-10.939-.426-13.192.029-1.546.313-2.042.26-1.766-.187.238-.384.088-.508-.391-.325-.454.174-1.187-.331-1.77-1.22-.711-1.086-.805-1.581-.328-1.74.447-.149.339-.478-.329-1.003-.907-.712-.849-.755.661-.493.911.158 1.346.141.966-.038-1.398-.659-.628-1.337 1.518-1.337 1.394 0 2.211.254 2.217.69.006.508.134.492.483-.059.298-.471.604-.54.822-.187.371.6 1.073.553 2.799-.186.592-.253 1.892-.477 2.89-.497 2.288-.046 3.031-1.417.768-1.417-.895 0-1.718-.359-1.898-.828-.214-.559.027-.828.742-.828.583 0 1.258-.311 1.501-.69.633-.99 2.883-2.162 3.462-1.804.27.167.648.051.838-.257s1.032-.561 1.87-.561 2.873-.403 4.522-.897c2.603-.778 2.837-.957 1.774-1.356-.674-.253-5.284-.426-10.244-.385s-9.344-.126-9.74-.371c-.411-.254-.884-.183-1.099.165-.444.718-17.606 1.262-18.032.572-.15-.243-.658-.293-1.129-.112-.58.223-.657.452-.237.712.341.211-.135.383-1.058.383s-1.678-.237-1.678-.528-.379-.213-.841.171-1.018.522-1.234.306.225-.862.98-1.437l1.372-1.044-1.38.265c-1.209.232-1.244.2-.276-.259 1.592-.756 4.209-.678 5.743.172 1.495.828 3.367.555 3.367-.491 0-.482 1.09-.699 3.589-.713 2.252-.013 3.589.206 3.589.586 0 .334.311.2.69-.298.498-.653 1.993-1.003 5.383-1.259 2.581-.195 6.261-.705 8.177-1.133s4.277-.803 5.245-.832 3.002-.392 4.52-.807c2.588-.707 2.296-.735-4.693-.453l-8.281.31c-.455.005-6.17.591-12.698 1.303s-13.646 1.37-15.816 1.463-3.833.355-3.694.583-.818.415-2.126.416-4.615.362-7.348.802c-4.686.754-15.71 1.532-14.213 1.003.381-.135.553-.472.381-.75s.386-.517 1.239-.531 2.42-.498 3.483-1.074 2.429-1.279 3.036-1.562c1.996-.931 34.557-6.318 42.234-6.987l14.63-1.455 16.922-1.629c3.538-.295 7.627-.896 9.088-1.335 1.919-.578 2.762-.629 3.037-.184.349.564 6.157.41 13.187-.351 1.063-.115 4.417-.364 7.453-.554 5.448-.34 13.75-1.486 18.396-2.538 1.312-.297 2.618-.397 2.902-.221s4.131-.228 8.548-.897c6.535-.99 8.266-1.091 9.294-.54 1.034.553 2.358.46 7.285-.511l24.241-4.759 7.843-1.645c1.884-.431 4.244-.782 5.245-.78s2.937-.355 4.303-.792c2.303-.737 7.018-1.555 19.599-3.401a259.27 259.27 0 0 0 14.354-2.413l11.042-1.955 7.177-1.185c6.446-1.065 7.674-1.046 8.956.145.692.642 1.258 1.45 1.258 1.794s.186.597.414.561.982-.036 1.676 0c1.055.055 1.171.234.71 1.097-.676 1.263-.135 1.944.877 1.104 1.138-.945.879-.095-.431 1.411-.687.79-2.067 1.498-3.336 1.713-1.854.313-2.065.486-1.472 1.201.891 1.073.138 1.14 35.516-3.141 2.429-.294 6.777-.654 9.661-.799s8.102-.526 11.594-.846l10.214-.8c2.126-.12 4.847-.476 6.048-.791s5.964-.587 10.586-.606 8.732-.145 9.134-.28c.993-.334 13.93-1.012 17.009-.891 1.361.053 2.855.441 3.319.861 1.04.942 3.69 1.036 16.013.57 5.665-.214 10.867-.701 12.575-1.176 2.229-.621 5.926-.791 15.734-.723 7.052.049 18.783-.099 26.071-.328 14.768-.464 13.979-.47 29.26.194 9.894.429 15.602.447 24.292.076 1.518-.065 2.326-.232 1.794-.371s-.966-.512-.966-.83c0-.381 1.55-.468 4.555-.256 2.505.177 10.02.573 16.7.881l19.047 1.126 28.984 2.198c19.807 1.265 30.248 1.768 41.13 1.985 5.01.1 11.221.351 13.802.557s6.432.354 8.557.327 6.349.195 9.385.493 12.87.652 21.853.786 17.43.485 18.771.781 4.39.673 6.776.837 5.118.427 6.073.583c3.264.534 8.361.897 15.814 1.127 6.563.202 12.94.687 22.359 1.701l4.693.451 6.073.508 8.557.692c2.429.186 4.54.414 4.693.508s1.69.32 3.417.504 3.504.473 3.948.644 3.007.384 5.694.475c7.379.248 7.369.247 7.369 1.139 0 .455.263.828.585.828s.405-.291.186-.646c-.272-.44-.092-.528.565-.276.53.203 1.512.37 2.181.37.822 0 1.245.359 1.301 1.104.099 1.32-.2 1.383-1.307.276-1.156-1.156-2.448-1.069-2.06.138.191.594.131.729-.155.349-.318-.42-1.873-.499-4.883-.248-5.181.433-9.092.314-16.286-.496l-8.281-.888c-1.67-.163-3.326-.392-3.681-.507s-.789.166-.966.627c-.238.62-.762.74-2.021.464-1.978-.434-3.249-.6-8.514-1.106-2.126-.205-4.013-.463-4.195-.575-.387-.238-7.771-.277-17.888-.095-6.419.116-10.945-.2-14.322-1-1.903-.451-15.214-.645-15.214-.223 0 .217 1.677.575 3.727.794s4.223.497 4.831.617c4.26.84 15.669 1.782 24.844 2.051 2.125.062 4.127.281 4.448.487.534.342 17.439 1.66 18.346 1.431.216-.055 2.256.074 4.533.287 3.521.328 12.512.989 14.768 1.085.816.035.912.747.163 1.21-.537.332-4.699.409-8.465.156-1.15-.077-2.293-.467-2.54-.867-.334-.541-1.283-.631-3.706-.353-1.792.206-3.424.473-3.627.594s-.746-.157-1.207-.618-.969-.625-1.13-.365c-.312.505-11.455.29-14.684-.283-1.063-.189-2.936-.394-4.163-.457s-2.78-.408-3.45-.767c-.975-.522-1.22-.505-1.22.084 0 .434-.738.797-1.794.882-4.365.352-10.476.319-15.32-.084-3.485-.289-4.972-.253-4.433.108 2.176 1.457-1.907 2.176-8.265 1.455-5.637-.639-6.645-.673-9.081-.303-1.257.191-3.02.15-3.917-.091-2.364-.634-14.654-1.755-20.127-1.837-2.581-.039-6.308-.24-8.281-.448s-5.949-.505-8.833-.661-9.717-.649-15.182-1.095-13.595-.979-18.066-1.183c-7.285-.332-8.165-.276-8.481.548-.301.784-1.26.916-6.502.896-3.382-.013-7.267.178-8.634.424l-2.484.448 4.141.616c2.277.339 5.01.609 6.073.6s5.41.37 9.661.84 12.325 1.132 17.943 1.471 10.766.735 11.442.881 6.265.506 12.422.802l24.72 1.382 12.731.774c5.332.308 10.053.67 10.49.805s1.292.434 1.899.663 2.059.486 3.227.571 2.41.547 2.763 1.029c.508.695 1.947.905 6.987 1.018 3.491.079 6.595.296 6.899.482s2.415.485 4.693.663c10.887.852 21.769 1.544 26.776 1.702 3.036.096 9.496.609 14.354 1.139s11.069 1.047 13.802 1.147c18.914.698 34.021 1.576 41.958 2.44 2.733.297 7.523.701 10.645.896s5.807.567 5.967.827-.53.492-1.535.517a86.45 86.45 0 0 0-3.385.158c-.857.062-1.667-.062-1.799-.275s-1.158-.135-2.28.175c-1.139.314-3.637.402-5.654.199-1.988-.2-12.558-.462-23.49-.581l-28.984-.573c-8.93-.349-11.461-.136-5.603.473 1.625.169 3.075.427 3.222.574.394.394-1.625 1.368-3.3 1.592-1.951.261-2.567.961-.899 1.021.734.026 4.564.279 8.511.562s11.711.661 17.253.841c9.109.295 10.075.419 10.075 1.294 0 1.214 2.223 1.501 15.617 2.018 5.401.208 9.95.588 10.108.844s1.377.466 2.707.466c4.536 0 3.264 1.524-2.307 2.766-1.573.351-3.684.592-4.693.536-6.724-.373-4.96.714 2.583 1.592 3.036.353 7.26.763 9.385.91s5.976.515 8.557.818 7.798.714 11.594.914c4.674.247 7.079.598 7.453 1.087.306.401 2.276.884 4.417 1.083 2.126.198 4.113.663 4.417 1.034s2.366.842 4.584 1.047 4.589.737 5.27 1.183c.78.511 3.168.901 6.457 1.054 7.093.33 12.651.952 12.959 1.451.324.524-4.51 1.272-5.253.813-.305-.188-.554-.107-.554.181s.87.686 1.932.886c2.098.394 2.495 1.08.966 1.673-1.804.699.721 1.807 6.396 2.806 4.767.839 7.78 1.877 5.584 1.923-2.064.043 1.122 1.016 4.439 1.356 1.969.201 3.869.606 4.222.899s2.213.786 4.133 1.095c5.336.859 5.278 1.55-.165 1.978-2.034.16-3.893.633-4.452 1.134-.784.702-1.744.786-5.245.459-7.119-.665-8.528-.535-9.597.881-.523.693-.843 1.434-.712 1.647s1.913.56 3.959.773 3.969.581 4.273.82 1.732.609 3.174.824c3.958.589 3.146 1.369-1.426 1.369-2.227 0-4.237.186-4.467.414s-2.545.414-5.146.414c-3.288 0-4.8.21-4.965.69-.162.473.429.691 1.879.693 1.164.001 2.986.231 4.049.51s4.035.664 6.605.856 4.953.582 5.296.866.767.372.944.195.899-.115 1.605.137c.991.354.403.539-2.581.81-3.521.32-7.537 1.126-9.662 1.938-1.348.515.749 1.082 7.039 1.902 3.112.406 5.659.885 5.659 1.065s1.615.225 3.589.099c2.884-.184 3.589-.07 3.589.578 0 1.001-1.747 2.637-2.804 2.626-.649-.007-.641-.101.043-.544.705-.455.682-.536-.155-.544-.541-.005-1.131.377-1.312.848-.28.73-1.278.814-6.746.568-6.851-.308-8.535.057-7.273 1.578 2.114 2.547 10.735 5.278 16.661 5.278 3.58 0 5.45.67 5.45 1.952 0 .642-.883.806-4.279.796-2.353-.007-5.272-.275-6.487-.595s-6.937-.694-12.717-.832c-10.221-.243-10.511-.22-10.592.86-.08 1.062.594 1.826 1.778 2.018.304.049 2.685.491 5.293.983 8.533 1.608 16.11 2.587 23.864 3.085 7.185.461 9.635 1.093 8.892 2.295-.169.274-.545.352-.836.172s-.459.003-.376.405-.277.697-.809.655-.841.117-.695.354-.578.587-1.609.781c-2.228.418-2.756 1.413-1.615 3.042.608.868.673 1.386.239 1.908-.711.857-.247 1.444 1.143 1.444.557 0 1.012.104 1.012.231s.165.661.367 1.186c.337.877-.034.925-4.555.589-2.707-.201-5.853-.514-6.992-.694-1.648-.261-2.07-.152-2.07.533 0 .474-.4 1.085-.89 1.359-1.264.707-.505 3.888 1.08 4.528 1.133.457 1.137.484.086.554-1.104.074-1.104.074 0 .548 1.077.463-.428.661-6.073.799-2.355.058-4.141.801-4.141 1.723 0 .493-.572.794-1.518.798-.835.005-2.083.159-2.773.344-1.177.315-1.194.382-.276 1.079.538.409 1.659.751 2.489.76s3.149.887 5.153 1.95c2.021 1.072 4.446 1.932 5.448 1.932 3.346 0 8.564.703 8.307 1.119-.14.227.168.379.684.337s1.028.352 1.136.876c.251 1.215-3.008 3.309-4.69 3.013-.673-.118-1.313.056-1.424.387-.26.781-6.704 1.002-9.281.318-1.094-.29-6.746-.595-12.56-.678-9.828-.139-12.727.143-9.052.88l4.003.867c1.366.309 3.54.573 4.831.586s2.346.272 2.346.576.389.552.864.552 1.375.273 1.998.607c1.121.6 1.119.614-.174 1.258-2.265 1.129-1.563 2.194 2.243 3.405 1.953.621 3.667 1.49 3.809 1.932s.478.947.747 1.123c.844.554-.166 2.257-1.122 1.891-.483-.185-.726-.185-.539.002s-.288.965-1.053 1.73c-1.007 1.007-2.045 1.417-3.754 1.483-1.3.05-2.263.254-2.14.452s-2.154.239-5.061.091c-4.225-.216-5.469-.103-6.21.566-1.028.929-6.45 1.312-9.278.656-1.08-.251-1.868-.173-2.103.207-.207.334-.962.608-1.678.608-1.661 0-3.049.53-3.049 1.163 0 .271.36.493.801.493s1.012.377 1.269.837c.291.519 2.449 1.222 5.686 1.852 6.379 1.241 11.074 3.138 10.63 4.295-.17.444-.664.672-1.096.506s-.647-.077-.477.198-.343 1.273-1.139 2.219c-1.065 1.266-1.74 1.627-2.557 1.368-.615-.195-.971-.128-.799.151s-.553.527-1.609.557-3.664.482-5.795 1.004l-3.875.95 1.233 1.313c.678.722 1.463 1.313 1.744 1.313s1.363.405 2.405.899c1.817.862 1.86.952 1.056 2.18-.529.807-.634 1.407-.284 1.623.305.189.396.601.201.916-.228.37-.525.307-.837-.176s-.628-.551-.897-.186c-.228.31-1.159.923-2.07 1.362l-1.656.799 1.747.188c1.892.203 2.903 1.62 1.532 2.146-.463.178-.98.186-1.148.018s-1.132.159-2.143.727-2.782 1.209-3.936 1.426-2.433.728-2.842 1.137c-.969.968-1.348.947-6.477-.365-4.604-1.177-5.902-1.068-7.79.659-1.066.974-1.495 1.022-4.38.489-3.784-.699-10.912-.789-10.506-.132.156.253 2.096.768 4.311 1.146 5.643.962 6.279 1.169 5.352 1.742-1.606.993 5.587 3.336 12.617 4.111 1.898.209 3.572.575 3.719.813s-.254 1.095-.89 1.905c-1.07 1.36-1.09 1.547-.269 2.455.489.541.889 1.119.889 1.285 0 .682-9.349-.3-12.422-1.305-4.419-1.445-13.368-2.5-14.194-1.673-.437.437-.441.813-.014 1.328.577.696 1.463.993 8.825 2.966 2.296.615 3.45 1.203 3.45 1.756 0 .699-.651.772-4.096.46-2.624-.238-4.223-.166-4.449.2-.194.314-.049.571.324.571s.548.129.391.286c-.37.37-8.189-1.271-8.966-1.882-.611-.48-8.673-1.722-10.393-1.601-.531.038-.966.379-.966.759s-.129 1.026-.286 1.435c-.271.707 6.471 2.137 18.089 3.835 1.745.255 4.074.84 5.174 1.3s2.778.837 3.728.839c2.5.005 6.092 1.098 5.511 1.678-.269.269-3.631.559-7.471.646l-6.891.251c.05.051 1.319.576 2.82 1.165 2.613 1.026 2.675 1.1 1.481 1.739-.935.5-1.934.52-3.999.077-3.36-.721-3.802-.73-3.802-.082 0 .28.742.671 1.65.871 3.018.663 2.364 1.382-1.256 1.382-2.107 0-4.238.35-5.273.867-1.047.523-2.222.713-2.959.479-1.575-.5-27.496-.69-27.193-.2.642 1.039-6.6 1.034-12.78-.01-12.515-2.113-23.163-3.314-30.032-3.387-3.796-.041-9.51-.415-12.698-.832s-8.868-1.015-12.622-1.328-6.984-.665-7.177-.782-2.215-.371-4.492-.565l-6.073-.586c-2.212-.267-12.285-.829-19.599-1.093-5.291-.191-13.33-.699-18.771-1.186-1.822-.163-8.902-.402-15.734-.532s-14.906-.439-17.943-.688-11.434-.428-18.662-.398c-10.93.046-13.229.192-13.664.869-.444.69-.598.697-1.019.043-.331-.513-1.041-.661-2.128-.444-.9.18-1.903.055-2.236-.278s-1.424-.657-2.427-.721-2.319-.264-2.927-.443c-3.308-.98-6.756-1.265-8.144-.673-1.115.475-3.897-.086-3.513-.708.142-.229-2.519-.483-5.912-.565-9.138-.22-10.085-.32-11.12-1.178-.841-.698-.925-.666-.758.29.127.728-.08 1.011-.641.878-.455-.108-1.387-.201-2.07-.207s-1.242-.202-1.242-.435-.4-.578-.89-.765c-.646-.248-.799-.105-.558.522.228.595.119.728-.353.429-.376-.239-3.044-.512-5.929-.608-6.067-.201-5.165-.198-33.677-.097-11.994.042-23.343-.103-25.221-.322s-3.831-.238-4.342-.043c-.94.361-18.975 1.073-24.516.968-4.333-.082-9.248 2.466-6.514 3.377.407.136.126.526-.69.957-.758.4-1.517.937-1.685 1.193-.609.926-5.297 1.443-6.628.731-.839-.449-3.062-.61-6.557-.476l-21.23.495c-8.768.16-16.545.443-17.283.628s-3.871.375-6.965.421-6.121.364-6.728.705c-1.087.611-6.207 1.613-7.064 1.383-1.056-.284-3.018-.212-4.806.175-1.063.23-2.429.377-3.036.326l-2.208-.19c-.607-.053-3.464.194-6.349.551s-6.319.643-7.632.637-2.679.224-3.036.511-1.457.695-2.444.906c-1.469.314-1.794.214-1.794-.551 0-.828-.457-.89-4.003-.544-2.201.215-7.978.448-12.836.518s-10.172.419-11.807.776-3.095.648-3.242.648.041.373.419.828 1.526.828 2.552.828 1.865.104 1.865.231.151.624.335 1.104c.46 1.198-1.095 1.139-2.322-.088-.695-.695-1.025-.771-1.191-.273-.126.379-.457.548-.734.377s-.505-.111-.505.135-.559.477-1.242.514-4.472.349-8.419.693-11.897.724-17.667.846-11.111.357-11.87.524c-2.572.564-16.714 1.872-24.292 2.247-14.042.694-24.688 2.703-26.883 5.071-.687.741-1.897 1.339-2.765 1.367-7.144.232-17.065.976-21.42 1.606a159.14 159.14 0 0 1-7.102.818c-2.084.186-5.037.575-6.562.864l-2.973.526c-.11 0-.201-.636-.201-1.413zm0-5.023c0-.604-.245-.649-1.084-.2-.647.346-.955.916-.764 1.414.247.642.495.688 1.084.2.42-.349.764-.985.764-1.414zm93.026-8.211c2.16-.775 2.105-.786-2.484-.517-10.51.616-13.802.929-13.802 1.309 0 .72 13.963.041 16.286-.792zm-256.442-6.667c0-.119-.373-.217-.828-.217s-.828.241-.828.535.373.392.828.217.828-.415.828-.535zm40.026-1.873c.193-.312-.259-.552-1.039-.552-.759 0-1.534.248-1.721.552-.193.312.259.552 1.039.552.759 0 1.534-.248 1.721-.552zm-26.224-2.825c0-.57-.661-.623-1.887-.153-1.385.532-1.014 1.195.507.904.759-.145 1.38-.483 1.38-.752zm312.388-.09c1.884-.525 2.143-.726 1.214-.946-1.473-.349-19.038.389-28.452 1.195-2.558.219 17.197.754 21.255.576 1.974-.087 4.666-.458 5.982-.825zm19.137-1.699c.607-.144-.511-.241-2.484-.216-4.711.059-6.576.566-3.589.976 1.215.167 2.829.123 3.589-.098a62.69 62.69 0 0 1 2.484-.662zm-352.321.162c1.137-.033 1.129-.062-.147-.572-1.505-.601-2.796-.302-2.796.649 0 .346.392.478.873.293s1.412-.351 2.07-.37zm360.615-.621c.148-.148-.835-.31-2.184-.361s-2.624.185-2.834.524c-.268.434.381.541 2.184.361 1.411-.141 2.686-.377 2.834-.524zm431.716-6.521c.211-.342-.67-.527-2.314-.487-2.357.058-2.469.113-.999.487 2.416.615 2.933.615 3.313 0zm-850.931-8.106c-.399-.159-.875-.14-1.058.044s.143.314.725.29c.643-.026.774-.157.334-.334zm6.521-.727c1.11-.355 1.164-.445.276-.458-.607-.009-1.601.197-2.208.458-1.407.605.045.605 1.932 0zm7.408.217c.48-.184.873-.782.873-1.328 0-.846-.347-.949-2.346-.699-2.537.317-4.192 1.258-2.213 1.258.65 0 1.336.248 1.523.552.393.635.932.69 2.163.217zm896.902-9.602c0-.304-.435-.548-.966-.544-.826.007-.846.086-.138.544 1.042.673 1.104.673 1.104 0zm-883.228-22.46c-.399-.159-.875-.14-1.058.044s.143.314.725.29c.643-.027.774-.157.334-.334zm-4.52-1.611c0-.9-1.535-1.001-3.553-.234-2.196.835-1.675 1.422 1.068 1.204 1.667-.133 2.484-.452 2.484-.97zm10.255.398c-.551-.892-2.526-1.119-2.526-.291 0 .465.567.776 1.413.776.777 0 1.278-.218 1.113-.485zm-4.182-.619c.616-.398.298-.537-1.242-.544-1.139-.005-2.07.24-2.07.544 0 .703 2.224.703 3.312 0zm920.321-64.594c0-.304-.248-.552-.552-.552s-.552.248-.552.552.248.552.552.552.552-.248.552-.552zm4.003-10.303c-.38-.153-1.001-.153-1.38 0s-.069.278.69.278 1.07-.125.69-.278zm-8.281-6.649a7.87 7.87 0 0 0-2.484 0c-.683.132-.124.239 1.242.239s1.925-.108 1.242-.239zm-25.534-4.457c0-.236-2.05-.724-4.555-1.084s-5.153-.827-5.883-1.037c-.825-.238-1.201-.176-.991.164.186.3 2.523.862 5.193 1.249s5.104.781 5.408.877l.69.219c.076.024.138-.15.138-.386zm-805.211-5.091c.986-.424.945-.479-.381-.513-.817-.021-1.639.21-1.827.513-.407.659.675.659 2.208 0zm801.347-3.235c0-.261-2.493-.758-5.541-1.104-6.864-.781-8.096-.796-7.395-.094.295.295 3.263.757 6.597 1.027l6.2.569c.076.043.138-.136.138-.397zm-832.32-6.611c.156-.253-.077-.46-.519-.46s-.804.207-.804.46.234.46.519.46.647-.207.804-.46zm73.863-1.021c-.399-.159-.875-.14-1.058.043s.143.314.725.29c.643-.027.774-.157.334-.334zm-85.676-.727c0-.304-.435-.548-.966-.544-.826.007-.846.086-.138.544 1.042.673 1.104.673 1.104 0zm2.208-.861c0-.134-.248-.243-.552-.243s-.552.263-.552.585.248.431.552.243.552-.451.552-.585zm31.469-3.844c.759-.212 3.119-.593 5.245-.847s4.734-.723 5.797-1.044 1.932-.563 1.932-.537c0 .212 3.782-.97 5.659-1.768 2.848-1.211 3.028-2.141.414-2.141-1.35 0-1.932-.25-1.932-.828 0-.849 2.471-1.185 6.572-.893 1.787.127 6.885-.824 8.052-1.503.872-.507-1.914-1.078-5.549-1.138-2.364-.039-4.379.35-6.868 1.325-1.937.759-4.034 1.384-4.659 1.389-.906.007-.974.112-.336.516.441.279 1 .385 1.242.235s.44-.037.44.25c0 .494-1.208.843-5.425 1.567-1.01.173-1.971.665-2.135 1.092-.244.635-.456.648-1.165.073-.726-.59-.814-.563-.542.166.238.636.006.845-.863.778-.653-.051-2.012.133-3.02.409-1.27.347-2.074.3-2.622-.155-.445-.369-.79-.418-.79-.111 0 .609-4.207 2.351-5.677 2.351-.521 0-.948.34-.948.755 0 .562.74.715 2.898.601 1.594-.085 3.52-.327 4.279-.54zm22.711-20.022c-.398-.133-.987.021-1.307.342-.41.41-.194.481.724.241.747-.195.997-.445.583-.583zm666.838-2.187c0-.228-.755-.467-1.676-.531-.959-.067-1.535.11-1.347.414.385.623 3.024.725 3.023.117zm-665.258-3.478l1.38-.043-1.288-.516c-1.455-.583-3.957-.134-3.957.71 0 .308.555.408 1.242.224a13.89 13.89 0 0 1 2.622-.375zm660.842.119c0-.253-.373-.46-.828-.46s-.828.207-.828.46.373.46.828.46.828-.207.828-.46zm2.312.083c-.399-.159-.875-.14-1.058.043s.143.314.725.29c.643-.026.774-.157.334-.334zm-653.665-1.104c-.399-.16-.875-.14-1.058.043s.143.314.725.29c.643-.026.774-.157.334-.333zm-61.937-.727c0-.304-.248-.552-.552-.552s-.552.248-.552.552.248.552.552.552.552-.248.552-.552zm14.354-1.448c0-.619-1.037-.076-1.334.698-.291.758-.21.792.493.208.462-.384.841-.792.841-.906zm5.521.068c0-.455-.098-.828-.217-.828s-.36.373-.535.828-.077.828.217.828.535-.373.535-.828zm722.779-18.872c-.399-.16-.875-.14-1.058.043s.143.314.725.29c.643-.026.774-.157.334-.333zm-508.318-11.179a.6.6 0 0 0-.186-.825c-.277-.171-.646.06-.82.514-.343.894.486 1.151 1.005.311zM131.336 510.977c-.318-.38-.361-.698-.096-.707s.017-.287-.551-.617c-1.457-.846-.166-1.572 2.689-1.511 1.491.031 1.85.163 1.104.406-1.052.342-1.836 1.748-.966 1.732 1.621-.03 2.792-.751 2.539-1.565-.247-.795-.181-.788.513.054.943 1.144 5.144 1.355 5.507.276.184-.548.409-.544 1.091.018 1.075.887 1.709 3.042.796 2.705-.356-.131-.566-.573-.468-.982.125-.52-.128-.466-.843.181-.816.738-2 .902-5.88.813-3.085-.071-5.069-.364-5.436-.802zm-7.579-1.217c-.735-.455-.382-1.682.485-1.682.63 0 1.183 1.559.666 1.878-.229.142-.747.053-1.151-.197zm11.681-4.442c-.611-.978-.547-1.114.557-1.188.686-.046 1.62-.125 2.075-.174 1.473-.16 1.75.344.779 1.417-1.227 1.356-2.543 1.335-3.411-.055zm334.434-4.108c0-.134.248-.397.552-.585s.552-.078.552.243-.248.585-.552.585-.552-.11-.552-.243zm6.478-.377c.374-.377.82-.547.99-.377s-.136.479-.681.686c-.787.3-.85.236-.309-.309zm-296.321-1.52c0-.266.383-.803.852-1.191.662-.549.999-.559 1.514-.045s.479.778-.161 1.183c-1.041.658-2.204.686-2.204.053zm623.3-5.036c0-.304.358-.552.796-.552s.949.248 1.137.552-.17.552-.796.552-1.137-.248-1.137-.552zm-9.385-.586c0-.628 1.483-.692 1.861-.08.149.241-.209.474-.796.518s-1.066-.153-1.066-.437zm-547.503-.891c-.497-1.295.26-1.485 2.168-.544.995.491 1.561.929 1.258.975-2.327.35-3.167.244-3.426-.431zm477.388-1.283c0-.304.11-.552.243-.552s.397.248.585.552.078.552-.243.552-.585-.248-.585-.552zm-7.959-.478c-.238-.385-.283-.849-.101-1.031.494-.494 1.033.233.766 1.033-.187.561-.317.561-.665-.003zm2.025.112c-1.13-.456-.782-1.211.414-.898.607.159 1.104.508 1.104.776 0 .526-.431.561-1.518.122zm264.677-2.763c-.635-.635-.402-1.288.46-1.288a.83.83 0 0 1 .828.828c0 .862-.653 1.095-1.288.46zm-685.155-3.382c-.149-.241.215-.474.807-.519s.934.152.757.437c-.391.633-1.198.675-1.565.081zm4.976-.948c.174-.452.724-.842 1.223-.865s2.025-.154 3.391-.291c1.792-.179 2.253-.093 1.656.31-.683.461-.691.56-.046.567.43.005.627.163.438.353s-1.837.435-3.661.547c-2.763.169-3.264.065-3.001-.62zm-225.304-1.336c-.408-.661.63-1.315 1.366-.861.617.382.212 1.375-.561 1.375-.268 0-.63-.231-.805-.514zm5.221-14.36c0-.286.246-.671.546-.857.313-.193.406.028.217.519-.367.956-.763 1.131-.763.337zm4.049-.284c0-.442.211-.673.469-.514s.326.521.151.804c-.446.722-.621.641-.621-.29zm962.095-72.071c-.456-.294-.58-.535-.276-.535s.925.241 1.38.535.58.535.276.535-.925-.241-1.38-.535zm-907.071-40.972c0-.239.497-.435 1.104-.435s1.104.233 1.104.518-.497.48-1.104.435-1.104-.279-1.104-.518zm23.119-8.108l-1.295-1.048 3.304-.439c1.817-.241 4.608-.453 6.202-.47s2.898-.2 2.898-.407c.001-.43 3.289.426 3.802.99.187.205-.427.227-1.364.049-1.048-.199-2.322.004-3.312.527-.885.468-2.914.875-4.508.904s-2.898.253-2.898.498c0 .791-1.501.471-2.828-.604zm-6.959.163c.183-.183.66-.203 1.058-.043.44.176.31.307-.334.334-.582.024-.908-.107-.725-.29zm-10.043-7.626c-.024-.582.107-.908.29-.725s.203.66.044 1.058c-.176.44-.307.31-.334-.334zm15.078-4.64c.154-.249-.228-.889-.849-1.421-1.112-.952-1.075-.993 2.286-2.583 4.048-1.915 4.421-1.958 4.421-.511 0 .68-.371 1.107-.966 1.113-.783.007-.818.102-.185.503.43.272 1.237.407 1.794.299s1.013.058 1.013.368-.807.518-1.794.464-2.291-.069-2.898-.034c-.92.054-.966.154-.276.6.708.457.688.536-.138.544-.531.005-.966.257-.966.561s-.387.552-.861.552-.735-.204-.58-.454zm7.059-4.455c-.555-.343-.533-.573.103-1.102.893-.741 1.605-.094.99.901-.219.355-.702.443-1.094.201zm-19.144-23.248c-.188-.304.031-.552.487-.552s.982.248 1.169.552-.031.552-.487.552-.982-.248-1.169-.552zm11.307-2.472c.795-.958 1.115-1.058 1.115-.348 0 .271-.408.65-.906.841-.758.291-.792.21-.208-.493zm780.258-8.909c.647-.647 4.182-1.154 4.895-.702.41.26.498.501.194.536-2.971.341-5.341.418-5.089.166zm-3.352-.681c-.459-.291-.116-.452.966-.452.923 0 1.678.207 1.678.46 0 .588-1.713.582-2.644-.009zm-14.194-.705c-2.363-.529-8.101-.909-18.821-1.245-3.671-.115-7.206-.494-7.855-.841-.706-.378-3.18-.57-6.161-.479-2.739.084-4.981.096-4.981.027 0-.192 3.212-1.81 3.594-1.81.185 0 .182.248-.005.552-.199.322.362.552 1.348.552.929 0 1.689-.248 1.689-.552s.263-.552.585-.552.398.311.17.69c-.307.51-.207.544.381.131.438-.308 1.293-.531 1.9-.496a203.14 203.14 0 0 0 4.035.145c1.612.045 2.816.268 2.675.496s1.273.378 3.142.333 3.833.151 4.364.433c.645.343.966.313.966-.09 0-.332.3-.419.667-.192s2.789.48 5.383.563l4.715.216c0 .036 1.242.146 2.76.244s2.823.234 2.898.301c.13.115.698.282 1.656.487.439.094-2.152 1.697-2.622 1.623-.152-.024-1.27-.266-2.484-.538zm-22.359-2.76c0-.266-.482-.483-1.072-.483s-1.206.217-1.37.483.318.483 1.072.483 1.37-.217 1.37-.483zm29.531-1.596c-.191-.309-.578-.418-.861-.243s-.514.069-.514-.234c0-1.069.891-1.086 1.55-.029.367.588.556 1.068.419 1.068s-.404-.252-.595-.561zm-11.818-2.153c-.582-.582-1.173-.943-1.314-.802s-1.466.339-2.944.441c-2.561.176-5.737-.961-4.932-1.766.645-.645 4.457-.494 5.29.209.853.72 2.406.744 3.102.047.586-.586 3.402-.457 3.792.173.53.858-.258 2.755-1.144 2.755-.435 0-1.267-.476-1.849-1.058zm5.698.421c-.235-.38-.152-.488.205-.267.33.204.755.118.946-.191.514-.832 1.202-.68 1.202.267 0 .973-1.781 1.117-2.353.191zm-645.458-4.113c.183-.183.66-.203 1.058-.043.44.176.31.307-.334.334-.582.024-.908-.106-.725-.29zm111.371-15.677c0-.304.11-.552.243-.552s.397.248.585.552.078.552-.243.552-.585-.248-.585-.552zm12.874.056c-.891-.655-.678-1.596.303-1.339.626.164 1.027-.062 1.085-.609l.184-1.697c.051-.455.547-.859 1.104-.897s1.198-.12 1.426-.183l2.07-.559c2.026-.544 3.126-1.358 2.722-2.012-.166-.269.188-.49.788-.49s1.217.31 1.371.69c.195.479.419.509.736.098.811-1.053 2.501-1.381 3.392-.659.716.579.783.565.392-.084-.359-.595-.241-.695.491-.414.53.203 1.299.37 1.71.37s.895.471 1.078 1.047c.214.673.687.955 1.325.788 1.409-.369 1.263-1.734-.157-1.472-1.123.207-1.124.199-.046-.313.607-.289 1.945-.542 2.973-.563s3.388-.282 5.245-.58c4.813-.772 16.911-2.124 22.423-2.507l7.177-.544c2.879-.254 8.562-.657 16.01-1.137l8.833-.642c4.744-.402 12.211-.432 13.25-.053.455.166 1.884.493 3.174.726s2.346.607 2.346.83-.614 1.02-1.365 1.771c-1.111 1.111-1.881 1.355-4.143 1.311-1.652-.033-2.703.172-2.592.505.102.307 2.099.579 4.437.604 3.671.039 6.117.753 5.282 1.543-.373.353-7.692.702-7.691.367 0-.164-1.676-.221-3.727-.126s-5.153-.053-6.895-.329-3.285-.384-3.429-.24-1.327.314-2.63.378-3.054.308-3.893.543c-.907.254-1.81.191-2.227-.155-.386-.32-3.103-.639-6.039-.71-3.634-.087-5.224-.317-4.983-.722.195-.327-.066-.252-.582.166-.645.523-1.638.648-3.183.401-1.475-.236-2.126-.165-1.897.206.391.633.318.645-4.685.779-1.974.053-4.148.292-4.831.531s-1.242.231-1.242-.017-.621-.451-1.38-.451-1.38.186-1.38.414-.387.414-.861.414-.731-.21-.572-.466c.383-.62-5.288.291-5.7.915-.754 1.143-11.086 2.302-11.086 1.243a.59.59 0 0 0-.585-.588c-.322 0-.442.231-.267.514.499.808-.771 1.306-1.592.624-.551-.457-.81-.429-1.017.11-.179.466-1.087.678-2.549.596-1.249-.07-2.271.105-2.271.389 0 .913-2.836.313-3.387-.716-.293-.547-.773-.847-1.066-.666s-.407.535-.252.786-.081.596-.525.766-.957.068-1.139-.227c-.202-.327-.909-.215-1.812.288-1.698.946-6.98 1.952-7.654 1.457zm-7.905-2.508c0-.97.331-1.113.805-.347.175.283.065.67-.243.861s-.561-.04-.561-.514zm2.08-.954c.321-.321.909-.475 1.307-.342.413.138.163.388-.583.583-.918.24-1.134.168-.724-.241zm190.182-1.401c-.683-.132-1.242-.429-1.242-.661 0-.676 2.4-.308 2.637.404.119.356.133.613.031.571s-.743-.183-1.426-.314zm-11.456-1.267c1.518-.652 2.389-.652 1.38 0-.455.294-1.201.522-1.656.505-.546-.02-.452-.192.276-.505zm3.344.051c-.17-.275.188-.371.796-.212 1.289.337 1.452.712.309.712-.438 0-.935-.225-1.105-.501zm-71.073-1.249c-.869-.873-.475-.934 6.349-.975 4.002-.024 7.829-.151 8.506-.282s1.359-.029 1.517.225 1.047.411 1.976.346c2.512-.174 2.524.63.013.869-1.187.113-2.041.015-1.897-.218.453-.733-.397-.461-1.262.404-.939.939-3.271 1.108-3.787.275-.227-.368-.706-.359-1.424.025-1.222.654-2.373.21-1.811-.7.246-.398.109-.435-.405-.112-.426.268-2.142.619-3.812.78-2.39.231-3.234.095-3.963-.638zm44.265.646c0-.304.11-.552.243-.552s.397.248.585.552.078.552-.243.552-.585-.248-.585-.552zm-22.083-1.104c-.498-.322-.566-.539-.171-.544.362-.005.811.24.999.544.424.685.232.685-.828 0zm215.634-.075c.286-.462-1.818-1.006-2.244-.58-.594.594-3.048.706-3.048.139 0-.35-1.571-.435-4.279-.23-3.32.251-4.712.122-6.211-.577-1.063-.496-1.514-.787-1.002-.648s1.009.037 1.104-.227.546-.56 1.002-.659 1.011-.428 1.234-.731.409-.008.414.657c.008 1.143.091 1.166 1.527.416 1.362-.711 1.597-.694 2.283.171.727.917.748.917.431 0-.257-.746-.028-.966 1.002-.966.735 0 1.589.435 1.898.966s.57.659.579.276c.018-.723 1.673-.996 1.673-.276 0 .228 1.878.4 4.174.382s4.298.169 4.449.414.808.446 1.458.446c.946 0 1.044.138.492.69-.691.691-7.356 1.017-6.937.339zm9.063-.017c0-.253.186-.477.414-.497s1.209-.141 2.18-.268c2.184-.286 2.962.661.861 1.048-2.077.383-3.455.27-3.455-.283zm-39.749-1.84c0-.304-.932-.552-2.07-.552s-2.253.248-2.476.552c-.27.368-.409.368-.415 0-.012-.692-3.32-.855-3.32-.164 0 .278-.226.366-.502.195-.526-.325-5.382-.847-10.54-1.132-1.67-.092-3.036-.224-3.036-.292 0-.37-7.264-.376-7.729-.006-.83.66-6.349 1.12-6.349.53 0-.281-.373-.51-.828-.51s-.828.24-.828.533c0 .333-3.889.435-10.352.271l-11.683-.255c-.732.005-2.161-.223-3.174-.503-1.108-.306-1.843-.308-1.843-.005 0 .502-1.931.42-2.455-.103-.151-.151-2.663-.186-5.583-.078-3.519.13-5.571-.022-6.088-.451-.608-.504-.782-.48-.789.11-.006.479-.158.545-.414.181-.244-.346-3.384-.604-7.859-.645l-27.604-.385-31.607-.389c-6.301-.04-11.456-.229-11.457-.419s-1.367-.346-3.037-.346-3.035.186-3.035.414-.263.414-.585.414-.431-.248-.243-.552-.046-.552-.519-.552-.861-.248-.861-.552-.263-.552-.585-.552-.431.248-.243.552c.202.326-.407.549-1.486.544-1.383-.007-1.625-.139-.999-.544.612-.395.637-.537.099-.544-.562-.007-.539-.199.099-.837.455-.455 1.343-.828 1.972-.828s1.144-.265 1.144-.589c0-.35.477-.438 1.173-.217.79.251 1.05.172.796-.239-.208-.336-.231-.611-.051-.611s.515.511.746 1.135l.42 1.136 1.456-1.145c.998-.785 1.577-.95 1.84-.524.272.44.518.403.847-.128.376-.609 4.164-.745 20.22-.728l29.695.375 20.151.675 25.964 1.148c1.016.628 5.464 1.184 6.138.768.415-.257.899-.165 1.147.217.32.493.567.451.972-.167.299-.455.548-.58.553-.276.006.348 3.42.527 9.256.485 9.222-.067 24.98.825 24.982 1.413 0 .171 1.926.282 4.279.248 4.032-.059 13.321.697 14.968 1.218.607.192.619.398.06 1.072-.563.679-.549.789.076.592.423-.133 1.462-.395 2.309-.581.949-.209 1.418-.597 1.222-1.012-.176-.371-.03-.285.324.19.52.699 1.23.785 3.709.448 1.743-.237 3.483-.193 4.033.102.532.285 1.667.552 2.522.593 1.432.069 1.45.095.223.326-1.03.194-1.155.363-.552.744.854.54.136.608-7.64.721-2.712.039-4.554-.157-4.554-.486zm-160.455-4.966c-.174-.454-.539-.687-.811-.519-.779.482-.576 1.344.317 1.344.492 0 .687-.324.494-.825zm-32.199 1.887c.568-1.062.534-1.182-.247-.882s-.815.178-.253-.871l.652-1.218.549 1.231c.63 1.412 1.77 1.617 2.236.403.175-.455.119-.828-.125-.828s-.443-.376-.443-.835c0-.679.499-.769 2.668-.481 1.823.242 2.668.156 2.668-.269 0-.346.874-.623 1.965-.623 1.288 0 1.836.209 1.59.607-.267.432-.04.428.783-.013.962-.515 1.104-.478.836.221-.177.462-.545.841-.816.841s-.493.248-.493.552c0 1.151.998.486 1.656-1.104.768-1.854.788-1.864 2.172-1.124.698.374.914.957.723 1.955-.15.782-.055 1.35.211 1.262s.607.082.759.379c.163.319-1.149.578-3.212.633-3.189.086-3.54-.02-4.091-1.23-.594-1.304-2.634-1.876-2.634-.739 0 .322.246.433.546.247.308-.19.408.021.23.485-.184.48-.678.683-1.188.487-.567-.218-.737-.115-.484.295.444.719-1.391 1.249-3.521 1.018-.759-.082-1.834.071-2.388.341-.903.44-.94.363-.35-.739zm15.103-2.074c.156-.253-.067-.46-.495-.46s-.652.207-.495.46.379.46.495.46.339-.207.495-.46zm-22.54 2.179c-.166-.269.193-.619.798-.777.733-.192.988-.581.763-1.167-.186-.484-.104-.879.182-.879.757 0 .635 1.803-.178 2.616-.824.824-1.157.868-1.565.207zm3.385-1.535c.155-.405.354-.736.44-.736s.285.331.44.736-.043.736-.44.736-.596-.331-.44-.736zm2.129-1.547c.589-.446 1.616-.818 2.281-.828 1.317-.019 2.156.818 1.331 1.328-.283.175-.609.032-.726-.317-.159-.477-.505-.478-1.391-.005-1.697.908-2.764.78-1.496-.179zm-7.336-.075c.183-.183.66-.203 1.058-.043.44.176.31.307-.334.333-.582.024-.908-.106-.725-.29zm29.111-.219c-.708-.457-.688-.536.138-.544.531-.005.966.24.966.544 0 .673-.062.673-1.104 0zm-2.965-.841c-.263-.686-.122-.733.769-.257 1.28.685 1.401 1.098.323 1.098-.423 0-.914-.378-1.092-.841z" fill="url(#A)"/><defs><linearGradient id="A"><stop offset="5%" stop-color="#ffee5a"/><stop offset="95%" stop-color="#ffa000"/></linearGradient></defs></svg>