<svg xmlns="http://www.w3.org/2000/svg" viewBox="0 0 470.026 470.026" fill="#ffd33c" xmlns:v="https://vecta.io/nano"><path d="M315.642 197.759c8.033 0 15.963-3.124 21.885-9.044a7.5 7.5 0 0 0-10.605-10.607 15.94 15.94 0 0 1-18.102 3.108 7.5 7.5 0 0 0-10 3.535c-1.785 3.737-.202 8.215 3.535 10a30.8 30.8 0 0 0 13.287 3.008zM467.829 90.232c-2.929-2.927-7.677-2.929-10.607 0l-82.572 82.571-14.567-14.567 82.572-82.572a7.5 7.5 0 0 0 0-10.607c-2.93-2.928-7.678-2.928-10.607 0l-82.572 82.572-14.567-14.567 82.572-82.572a7.5 7.5 0 0 0 0-10.607c-2.93-2.928-7.678-2.928-10.607 0l-82.572 82.572-14.567-14.567 82.571-82.572a7.5 7.5 0 0 0 0-10.607c-2.93-2.928-7.678-2.928-10.607 0l-87.869 87.87-21.218 21.219c-16.855 16.854-22.207 41.962-14.118 64.034l-17.093 15.171c-3.098 2.75-3.38 7.49-.631 10.588a7.48 7.48 0 0 0 5.612 2.521 7.47 7.47 0 0 0 4.976-1.891l21.104-18.732c2.5-2.22 3.229-5.825 1.789-8.842-8.366-17.52-4.764-38.514 8.967-52.242l15.909-15.909 45.039 45.038 19.877 19.876-15.91 15.91c-13.728 13.729-34.722 17.335-52.242 8.967a7.5 7.5 0 0 0-8.842 1.789l-17.195 19.373c-2.749 3.098-2.467 7.838.631 10.588a7.47 7.47 0 0 0 4.976 1.891c2.069 0 4.13-.852 5.612-2.521l13.634-15.36c6.793 2.489 13.87 3.705 20.909 3.705 15.832-.002 31.458-6.157 43.125-17.823l21.206-21.206c.015-.016 87.883-87.882 87.883-87.882 2.928-2.931 2.928-7.679-.001-10.609zm-259.126 219.41c-3.097-2.749-7.838-2.467-10.588.631L89.693 432.428l-.11.127c-.538.635-1.056 1.199-1.584 1.727a27.91 27.91 0 0 1-19.871 8.231c-7.506 0-14.562-2.923-19.87-8.231-10.957-10.956-10.957-28.785 0-39.741a27.88 27.88 0 0 1 1.727-1.584 6.67 6.67 0 0 0 .127-.11L174.558 282.39c3.098-2.75 3.38-7.49.631-10.588a7.5 7.5 0 0 0-10.588-.631L40.213 381.574a43.18 43.18 0 0 0-2.563 2.358c-16.805 16.806-16.805 44.15 0 60.956 8.142 8.141 18.965 12.624 30.478 12.624a42.82 42.82 0 0 0 30.479-12.624 43.85 43.85 0 0 0 2.359-2.564L209.334 320.23c2.749-3.098 2.467-7.838-.631-10.588zm198.649 71.933L190.306 188.928c16.92-32.58 10.996-72.347-15.352-98.695C140.369 55.647 98.818 35 63.803 35c-18.864 0-34.876 6.041-46.307 17.471C.886 69.082-4.112 94.712 3.423 124.64c7.26 28.832 25.669 59.122 51.835 85.289 15.978 15.978 37.222 24.776 59.818 24.776 13.595 0 26.909-3.244 38.873-9.429L346.6 442.326c.785.923 1.558 1.762 2.357 2.563 8.142 8.141 18.965 12.624 30.478 12.624a42.82 42.82 0 0 0 30.479-12.624c16.805-16.806 16.805-44.15 0-60.956-.8-.8-1.639-1.573-2.562-2.358zm-8.045 52.706c-5.308 5.308-12.364 8.231-19.871 8.231s-14.563-2.924-19.87-8.231a27.88 27.88 0 0 1-1.584-1.727 6.67 6.67 0 0 0-.11-.127l-196.725-221.64c-1.468-1.653-3.527-2.521-5.613-2.521-1.351 0-2.714.364-3.933 1.116-10.951 6.753-23.581 10.322-36.524 10.322-18.59 0-36.067-7.239-49.211-20.384-24.278-24.278-41.288-52.102-47.896-78.345-6.196-24.606-2.597-45.168 10.134-57.898C36.658 54.522 49.003 50 63.803 50c31.124 0 68.711 19.005 100.544 50.84 22.92 22.919 27.057 58.175 10.062 85.735a7.5 7.5 0 0 0 1.405 9.546l221.64 196.725.127.11c.635.538 1.199 1.056 1.727 1.584 10.956 10.956 10.956 28.785-.001 39.741zM143.135 111.444a7.5 7.5 0 0 0-.001 10.606c13.045 13.046 15.404 33.104 5.739 48.778a7.5 7.5 0 0 0 2.447 10.32c1.228.757 2.587 1.117 3.93 1.117 2.516 0 4.974-1.266 6.391-3.564 13.33-21.617 10.082-49.274-7.899-67.257-2.929-2.927-7.678-2.928-10.607 0zm-28.058 78.26c-10.577 0-20.521-4.118-27.999-11.596-20.502-20.503-34.713-43.395-40.017-64.457-3.363-13.356-2.499-24.606 2.255-29.361a7.5 7.5 0 0 0-10.607-10.605c-8.85 8.851-11.05 24.346-6.194 43.629 5.956 23.653 21.566 49.01 43.957 71.401 10.312 10.311 24.022 15.989 38.605 15.989a7.5 7.5 0 1 0 0-15z"/></svg>