<svg xmlns="http://www.w3.org/2000/svg" viewBox="0 0 58.365 58.365" xmlns:v="https://vecta.io/nano"><path d="M57.863 26.632l-8.681-8.061V5.365h-10v3.921L29.182 0 .502 26.632a1 1 0 0 0-.052 1.414c.375.404 1.008.427 1.414.052l3.319-3.082v33.349h16 16 16v-33.35l3.319 3.082c.192.179.437.267.681.267.269 0 .536-.107.732-.319a1 1 0 0 0-.052-1.413zM41.182 7.365h6v9.349l-6-5.571V7.365zm-18 49V35.302a.94.94 0 0 1 .937-.937h10.126a.94.94 0 0 1 .937.937v21.063h-12zm28 0h-14V35.302a2.94 2.94 0 0 0-2.937-2.937H24.119a2.94 2.94 0 0 0-2.937 2.937v21.063h-14V23.158l22-20.429 14.28 13.26 5.72 5.311h0l2 1.857v33.208z" fill="#66e76c"/></svg>