<svg xmlns="http://www.w3.org/2000/svg" viewBox="0 0 52 52" fill="#66e76c" xmlns:v="https://vecta.io/nano"><path d="M26 0C11.663 0 0 11.663 0 26c0 4.891 1.359 9.639 3.937 13.762L1.035 50.237c-.096.352.007.728.27.981s.643.343.989.237l10.306-3.17C16.637 50.717 21.26 52 26 52c14.337 0 26-11.663 26-26S40.337 0 26 0zm0 50a23.94 23.94 0 0 1-12.731-3.651 1 1 0 0 0-.531-.152c-.099 0-.198.015-.294.044l-8.999 2.77 2.538-9.13c.08-.278.035-.578-.122-.821C3.335 35.173 2 30.657 2 26 2 12.767 12.767 2 26 2s24 10.767 24 24-10.767 24-24 24zm16.985-17.874l-4.565-2.803-1.973-1.218c-1.297-.647-2.28-.19-2.654.188a1 1 0 0 0-.125.152c-1.347 2.021-3.106 3.954-3.621 4.058-.595-.093-3.38-1.676-6.148-3.981-2.826-2.355-4.604-4.61-4.865-6.146C20.847 20.51 21.5 19.336 21.5 18c0-1.377-3.212-7.126-3.793-7.707s-1.896-.673-3.903-.273a1.01 1.01 0 0 0-.511.273c-.243.243-5.929 6.04-3.227 13.066 2.966 7.711 10.579 16.674 20.285 18.13 1.103.165 2.137.247 3.105.247 5.71 0 9.08-2.873 10.029-8.572.071-.417-.13-.833-.5-1.038zm-12.337 7.385c-10.264-1.539-16.729-11.708-18.715-16.87-1.97-5.12 1.663-9.685 2.575-10.717.742-.126 1.523-.179 1.849-.128.681.947 3.039 5.402 3.143 6.204 0 .525-.171 1.256-2.207 3.293-.188.187-.293.441-.293.707 0 5.236 11.044 12.5 13 12.5 1.701 0 3.919-2.859 5.182-4.722.073.003.196.028.371.116.36.181.984.588 1.773 1.104 1.042.681 2.426 1.585 4.06 2.522-.742 3.57-2.816 7.181-10.738 5.991z"/></svg>